<?xml version="1.0" standalone="no"?>
<!DOCTYPE svg PUBLIC "-//W3C//DTD SVG 20010904//EN"
 "http://www.w3.org/TR/2001/REC-SVG-20010904/DTD/svg10.dtd">
<svg version="1.0" xmlns="http://www.w3.org/2000/svg"
 width="1539.000000pt" height="1434.000000pt" viewBox="0 0 1539.000000 1434.000000"
 preserveAspectRatio="xMidYMid meet">

<g transform="translate(0.000000,1434.000000) scale(0.100000,-0.100000)"
fill="#000000" stroke="none">
<path d="M7465 14323 c-1049 -88 -1968 -671 -2516 -1595 -230 -386 -374 -805
-446 -1293 -26 -176 -26 -716 0 -900 110 -776 433 -1433 966 -1965 522 -520
1170 -832 1901 -916 202 -23 606 -15 804 16 1344 207 2421 1258 2696 2630 118
587 81 1205 -105 1765 -170 514 -436 946 -815 1325 -261 262 -531 456 -855
615 -456 225 -906 328 -1410 323 -99 -1 -198 -3 -220 -5z"/>
<path d="M2960 6690 c-907 -86 -1715 -540 -2274 -1280 -202 -268 -348 -534
-469 -856 -298 -796 -283 -1721 42 -2512 418 -1015 1306 -1763 2341 -1972 229
-46 389 -62 635 -62 413 0 769 66 1146 213 923 360 1660 1175 1943 2149 285
976 132 2031 -414 2859 -532 807 -1332 1315 -2275 1446 -132 19 -541 27 -675
15z"/>
<path d="M8308 6138 c11 -18 800 -1367 1752 -2998 953 -1631 1742 -2982 1754
-3002 l22 -38 1754 3003 c965 1651 1763 3017 1773 3035 l19 32 -3547 0 -3547
0 20 -32z"/>
</g>
</svg>
